<?xml version="1.0"?><svg width="387.0625" height="386" xmlns="http://www.w3.org/2000/svg" xmlns:xlink="http://www.w3.org/1999/xlink">
 <defs>
  <linearGradient id="linearGradient3510">
   <stop stop-color="#9394b8" id="stop3512" offset="0"/>
   <stop stop-color="#9394b8" stop-opacity="0" id="stop3514" offset="1"/>
  </linearGradient>
  <linearGradient id="linearGradient4777">
   <stop stop-color="#7f7f7f" id="stop4779" offset="0"/>
   <stop stop-color="#ffffff" offset="1" id="stop4809"/>
  </linearGradient>
  <linearGradient id="linearGradient4771">
   <stop stop-color="#ffffff" offset="0" id="stop4773"/>
   <stop stop-color="#ffffff" stop-opacity="0" offset="1" id="stop4775"/>
  </linearGradient>
  <linearGradient id="linearGradient4763">
   <stop stop-color="#ffffff" id="stop4765" offset="0"/>
   <stop stop-color="#ffffff" stop-opacity="0" id="stop4767" offset="1"/>
  </linearGradient>
  <linearGradient id="linearGradient4568">
   <stop stop-color="#9394b8" id="stop4570" offset="0"/>
   <stop stop-color="#ffffff" offset="1" id="stop4807"/>
  </linearGradient>
  <linearGradient gradientUnits="userSpaceOnUse" y2="70.96875" x2="-676.28125" y1="-543.67883" x1="-1290.975" id="linearGradient4574" xlink:href="#linearGradient4568"/>
  <linearGradient gradientUnits="userSpaceOnUse" y2="71.512238" x2="-989.94952" y1="-214.36911" x1="-989.94952" id="linearGradient4711" xlink:href="#linearGradient4568"/>
  <linearGradient gradientTransform="translate(832.3657,771.75654)" gradientUnits="userSpaceOnUse" y2="-236.11523" x2="-979.84796" y1="66.4533" x1="-979.84796" id="linearGradient4769" xlink:href="#linearGradient4777"/>
  <linearGradient gradientTransform="translate(832.3657,771.75654)" gradientUnits="userSpaceOnUse" y2="71.440598" x2="-982.85712" y1="-544.7807" x1="-982.85712" id="linearGradient4797" xlink:href="#linearGradient4568"/>
  <linearGradient y2="71.440598" x2="-982.85712" y1="-544.7807" x1="-982.85712" gradientTransform="translate(832.3657,771.75654)" gradientUnits="userSpaceOnUse" id="linearGradient4817" xlink:href="#linearGradient4568"/>
  <linearGradient y2="-236.11523" x2="-979.84796" y1="66.4533" x1="-979.84796" gradientTransform="translate(832.3657,771.75654)" gradientUnits="userSpaceOnUse" id="linearGradient4819" xlink:href="#linearGradient4777"/>
  <linearGradient y2="-236.11523" x2="-979.84796" y1="66.4533" x1="-979.84796" gradientTransform="matrix(0.6445874,0,0,-0.6297777,1002.1094,322.38324)" gradientUnits="userSpaceOnUse" id="linearGradient4822" xlink:href="#linearGradient4777"/>
  <linearGradient y2="71.440598" x2="-982.85712" y1="-544.7807" x1="-982.85712" gradientTransform="matrix(0.6445874,0,0,0.6297777,1002.1094,620.40148)" gradientUnits="userSpaceOnUse" id="linearGradient4827" xlink:href="#linearGradient4568"/>
  <linearGradient y2="-236.11523" x2="-979.84796" y1="66.4533" x1="-979.84796" gradientTransform="matrix(0.6445874,0,0,-0.6297777,1001.6842,322.38324)" gradientUnits="userSpaceOnUse" id="linearGradient4842" xlink:href="#linearGradient4777"/>
  <linearGradient y2="71.440598" x2="-982.85712" y1="-544.7807" x1="-982.85712" gradientTransform="matrix(0.6445874,0,0,-0.6297777,828.01495,44.991419)" gradientUnits="userSpaceOnUse" id="linearGradient4852" xlink:href="#linearGradient4568"/>
  <linearGradient y2="-236.1319" x2="-987.5874" y1="74.615929" x1="-987.5874" gradientTransform="matrix(0.6445874,0,0,-0.6297777,1002.1094,322.33206)" gradientUnits="userSpaceOnUse" id="linearGradient4873" xlink:href="#linearGradient4568"/>
  <linearGradient y2="71.440598" x2="-982.85712" y1="-544.7807" x1="-982.85712" gradientTransform="matrix(0.6445874,0,0,-0.6297777,946.39511,366.67006)" gradientUnits="userSpaceOnUse" id="linearGradient4886" xlink:href="#linearGradient4568"/>
  <linearGradient gradientUnits="userSpaceOnUse" y2="277.38016" x2="371.2373" y1="663.96436" x1="371.2373" id="linearGradient4902" xlink:href="#linearGradient4568"/>
  <linearGradient gradientUnits="userSpaceOnUse" y2="196.38329" x2="249.67178" y1="196.38329" x1="114.49531" id="linearGradient3516" xlink:href="#linearGradient3510"/>
  <linearGradient gradientTransform="matrix(1.3338949,0,0,1.3338949,125.21415,189.43825)" y2="263.96893" x2="182.29773" y1="129.76848" x1="182.29773" gradientUnits="userSpaceOnUse" id="linearGradient3538" xlink:href="#linearGradient4568"/>
  <linearGradient y2="-236.1319" x2="-987.5874" y1="74.615929" x1="-987.5874" gradientTransform="matrix(0.6445874,0,0,-0.6297777,1002.1094,304.33206)" gradientUnits="userSpaceOnUse" id="linearGradient3761" xlink:href="#linearGradient4568"/>
  <linearGradient gradientTransform="translate(0,-20)" gradientUnits="userSpaceOnUse" y2="277.42972" x2="365.01328" y1="664.38275" x1="365.01328" id="linearGradient3785" xlink:href="#linearGradient4568"/>
  <linearGradient y2="-236.1319" x2="-987.5874" y1="74.615929" x1="-987.5874" gradientTransform="matrix(0.6445874,0,0,-0.6297777,1002.1094,304.33206)" gradientUnits="userSpaceOnUse" id="linearGradient3799" xlink:href="#linearGradient4568"/>
  <linearGradient y2="277.42972" x2="365.01328" y1="664.38275" x1="365.01328" gradientTransform="translate(0,-20)" gradientUnits="userSpaceOnUse" id="linearGradient3801" xlink:href="#linearGradient4568"/>
  <linearGradient y2="263.96893" x2="182.29773" y1="129.76848" x1="182.29773" gradientTransform="matrix(1.3338949,0,0,1.3338949,125.21415,189.43825)" gradientUnits="userSpaceOnUse" id="linearGradient3803" xlink:href="#linearGradient4568"/>
  <linearGradient y2="1.000002" x2="0.501625" y1="0.007303" x1="0.501625" id="linearGradient3806" xlink:href="#linearGradient4568"/>
  <linearGradient y2="-1.003578" x2="0.507476" y1="0.994783" x1="0.507476" id="linearGradient3809" xlink:href="#linearGradient4568"/>
  <linearGradient y2="1.000075" x2="0.493841" y1="-0.010599" x1="0.493841" id="linearGradient3813" xlink:href="#linearGradient4568"/>
 </defs>
 <metadata id="metadata7">image/svg+xml</metadata>
 <g>
  <title>Layer 1</title>
  <g externalResourcesRequired="false" id="layer1">
   <g externalResourcesRequired="false" id="g2290">
    <path fill="#3f3f3f" fill-rule="nonzero" stroke-width="33.805305" stroke-linecap="round" marker-start="none" marker-mid="none" marker-end="none" stroke-miterlimit="4" stroke-dashoffset="0" d="m62.8125,48.072693l16.4375,45.1875c-0.035507,0.038391 -0.058289,0.086578 -0.09375,0.125l0.125,0.375c-6.91243,7.533905 -13.130524,15.847412 -18.5,24.90625l-49.5,-1.34375c-0.981583,2.224091 -1.985153,4.445587 -2.875,6.6875c-1.21228,3.054321 -2.330963,6.105042 -3.375,9.1875c-1.043655,3.082581 -2.02916,6.207153 -2.90625,9.3125c-0.785675,2.782104 -1.472458,5.549896 -2.125,8.34375l40.5,27.09375c-0.04924,0.444214 -0.017395,0.898956 -0.0625,1.34375l0.28125,0.1875c-0.465698,4.723572 -0.621506,9.448029 -0.625,14.15625l88.9375,0c0.017822,-2.83725 0.250763,-5.67804 0.65625,-8.46875c0.405457,-2.79071 1.000793,-5.544739 1.78125,-8.25c0.780457,-2.705261 1.732208,-5.356537 2.875,-7.9375c1.142792,-2.580963 2.476288,-5.082214 3.96875,-7.5c1.492462,-2.417786 3.139282,-4.753021 4.96875,-6.96875c1.829468,-2.215729 3.846161,-4.306458 6,-6.28125c2.153839,-1.974762 4.440704,-3.836273 6.90625,-5.53125c2.465546,-1.694946 5.110413,-3.248749 7.875,-4.625c1.9729,-0.982147 3.947662,-1.827942 5.96875,-2.59375c2.021088,-0.765808 4.07019,-1.445892 6.125,-2c2.05481,-0.554108 4.113464,-0.996765 6.1875,-1.34375c0.974457,-0.163025 1.961151,-0.225708 2.9375,-0.34375c0.333832,-0.042969 0.665314,-0.087128 1,-0.125c0.769257,-0.080994 1.543213,-0.227783 2.3125,-0.28125c0.752014,-0.052246 1.498657,-0.005096 2.25,-0.03125c0.853455,-0.036865 1.706207,-0.059052 2.5625,-0.0625c0.468658,0.002075 0.938354,-0.043335 1.40625,-0.03125c0.344452,0.008911 0.687317,0.048187 1.03125,0.0625c1.717682,0.057159 3.437225,0.211975 5.15625,0.40625c7.378448,0.833832 14.74649,2.857269 21.75,6.34375c22.116577,11.010071 34.82608,32.864624 34.96875,55.5625l89.031219,0c-0.000977,-4.726227 -0.218018,-9.477325 -0.6875,-14.21875l41,-27.4375c-0.011963,-0.052887 -0.050415,-0.103363 -0.0625,-0.15625c-0.712097,-3.12265 -1.497986,-6.238373 -2.375,-9.34375c-0.876953,-3.105347 -1.831238,-6.198669 -2.875,-9.28125c-1.043701,-3.082581 -2.16272,-6.133179 -3.375,-9.1875c-0.880066,-2.217377 -1.840454,-4.429169 -2.8125,-6.625l-49.124969,1.34375c-0.328491,-0.555206 -0.726715,-1.073639 -1.0625,-1.625l-0.3125,0c-2.407867,-3.953064 -4.967163,-7.775238 -7.6875,-11.4375c-2.720337,-3.662262 -5.586975,-7.169861 -8.59375,-10.53125l16.6875,-45.8125c-1.450012,-1.264618 -2.891235,-2.530914 -4.375,-3.75c-2.467194,-2.02713 -4.97525,-4.006409 -7.53125,-5.90625c-2.55603,-1.899841 -5.173279,-3.729248 -7.8125,-5.5c-2.639252,-1.770752 -5.314392,-3.485077 -8.03125,-5.125c-0.777283,-0.469177 -1.555206,-0.927673 -2.34375,-1.375l-39,29.34375c-0.567657,-0.248901 -1.149536,-0.414703 -1.71875,-0.65625l-0.09375,0.0625c-4.305176,-1.830902 -8.703186,-3.437378 -13.15625,-4.875c-4.453064,-1.437622 -8.95871,-2.680023 -13.53125,-3.71875l-0.0625,-0.15625c-0.022186,-0.004944 -0.040344,-0.026306 -0.0625,-0.03125l-14.03125,-46.5625c-1.973389,-0.203613 -3.924927,-0.448456 -5.90625,-0.59375c-3.18457,-0.233521 -6.39328,-0.354401 -9.59375,-0.4375c-2.140564,-0.055573 -4.288879,-0.0383 -6.4375,-0.03125c-1.075592,0.011414 -2.144958,-0.027863 -3.21875,0c-3.200378,0.083099 -6.37793,0.235229 -9.5625,0.46875c-1.012634,0.074219 -2.020935,0.223022 -3.03125,0.3125l-14,46.375c-10.158691,2.096832 -20.071198,5.180359 -29.59375,9.21875l-39.375,-29.59375c-1.315674,0.753784 -2.638794,1.465942 -3.9375,2.25c-2.716919,1.639893 -5.391724,3.35434 -8.03125,5.125c-2.639267,1.770782 -5.256516,3.600128 -7.8125,5.5c-2.556046,1.899811 -5.063965,3.87912 -7.53125,5.90625c-0.980408,0.805634 -1.911575,1.671356 -2.875,2.5zm181.78125,39.28125c1.359802,0.094208 2.74118,0.451538 4.03125,1.09375c5.160278,2.568909 7.223053,8.770752 4.59375,13.8125c-2.629333,5.041718 -8.964722,7.037659 -14.125,4.46875c-5.160278,-2.568878 -7.223083,-8.739502 -4.59375,-13.78125c1.971954,-3.781311 6.014374,-5.876373 10.09375,-5.59375zm-148.875,47.28125c1.359772,0.094208 2.74118,0.451538 4.03125,1.09375c5.16037,2.568939 7.223083,8.739563 4.59375,13.78125c-2.629395,5.041718 -8.964691,7.037659 -14.125,4.46875c-5.160309,-2.568878 -7.223145,-8.739532 -4.59375,-13.78125c1.972015,-3.781281 6.014404,-5.845123 10.09375,-5.5625z" id="path4850"/>
    <path fill="#000000" fill-rule="nonzero" stroke-width="33.805305" stroke-linecap="round" marker-start="none" marker-mid="none" marker-end="none" stroke-miterlimit="4" stroke-dashoffset="0" d="m324.25,337.927246l-16.4375,-45.1875c0.035492,-0.038391 0.058289,-0.086609 0.09375,-0.125l-0.125,-0.375c6.912415,-7.533875 13.130524,-15.847412 18.5,-24.90625l49.499969,1.34375c0.981628,-2.224121 1.985168,-4.445618 2.875,-6.6875c1.21228,-3.054321 2.330994,-6.105042 3.375,-9.1875c1.043701,-3.082581 2.029175,-6.207184 2.90625,-9.3125c0.785706,-2.782104 1.472473,-5.549896 2.125,-8.34375l-40.5,-27.09375c0.049255,-0.444214 0.017456,-0.898956 0.0625,-1.34375l-0.28125,-0.1875c0.465698,-4.723572 0.621521,-9.448059 0.625,-14.15625l-88.937469,0c-0.017822,2.83725 -0.250793,5.67804 -0.65625,8.46875c-0.405487,2.79068 -1.000793,5.544708 -1.78125,8.25c-0.780457,2.705261 -1.732208,5.356537 -2.875,7.9375c-1.142792,2.580963 -2.476288,5.082214 -3.96875,7.5c-1.492462,2.417755 -3.139282,4.753021 -4.96875,6.96875c-1.829468,2.215698 -3.846161,4.306458 -6,6.28125c-2.153839,1.974762 -4.440704,3.836273 -6.90625,5.53125c-2.465546,1.694946 -5.110413,3.248718 -7.875,4.625c-1.9729,0.982117 -3.947662,1.827911 -5.96875,2.59375c-2.021088,0.765808 -4.07019,1.445892 -6.125,2c-2.05481,0.554077 -4.113464,0.996765 -6.1875,1.34375c-0.974457,0.163025 -1.961151,0.225708 -2.9375,0.34375c-0.333832,0.042969 -0.665314,0.087158 -1,0.125c-0.769287,0.080994 -1.543213,0.227783 -2.3125,0.28125c-0.752014,0.052246 -1.498657,0.005066 -2.25,0.03125c-0.853455,0.036865 -1.706207,0.059021 -2.5625,0.0625c-0.468658,-0.002075 -0.938354,0.043335 -1.40625,0.03125c-0.344452,-0.008911 -0.687317,-0.048218 -1.03125,-0.0625c-1.717682,-0.05719 -3.437225,-0.211975 -5.15625,-0.40625c-7.378448,-0.833862 -14.74649,-2.857269 -21.75,-6.34375c-22.116577,-11.010071 -34.82608,-32.864624 -34.96875,-55.5625l-89.03125,0c0.001007,4.726196 0.218063,9.477295 0.6875,14.21875l-41,27.4375c0.012024,0.052887 0.050446,0.103363 0.0625,0.15625c0.712112,3.12265 1.498016,6.238373 2.375,9.34375c0.876999,3.105316 1.831268,6.198669 2.875,9.28125c1.043732,3.082581 2.16275,6.133179 3.375,9.1875c0.880081,2.217346 1.840454,4.429199 2.8125,6.625l49.125,-1.34375c0.328491,0.555176 0.726715,1.073669 1.0625,1.625l0.3125,0c2.407852,3.953064 4.967163,7.775208 7.6875,11.4375c2.720322,3.662231 5.58696,7.169861 8.59375,10.53125l-16.6875,45.8125c1.450012,1.264587 2.891235,2.530884 4.375,3.75c2.467194,2.0271 4.97525,4.006409 7.53125,5.906189c2.556046,1.899902 5.173264,3.729309 7.8125,5.5c2.639252,1.770813 5.314392,3.485107 8.03125,5.125c0.777283,0.469238 1.555176,0.927734 2.34375,1.375l39,-29.343689c0.567657,0.248901 1.149536,0.414734 1.71875,0.656189l0.09375,-0.0625c4.305176,1.830933 8.703186,3.437439 13.15625,4.875c4.453064,1.437622 8.95871,2.680115 13.53125,3.718811l0.0625,0.156189c0.022156,0.005005 0.040314,0.026306 0.0625,0.031311l14.03125,46.5625c1.973389,0.203613 3.924896,0.448425 5.90625,0.593689c3.18457,0.233643 6.39328,0.354431 9.59375,0.4375c2.140564,0.055603 4.288879,0.03833 6.4375,0.031311c1.075592,-0.011414 2.144958,0.027893 3.21875,0c3.200378,-0.083069 6.37793,-0.235291 9.5625,-0.468811c1.012634,-0.074158 2.020905,-0.222961 3.03125,-0.3125l14,-46.375c10.158691,-2.096802 20.071198,-5.180298 29.59375,-9.218689l39.375,29.593689c1.315674,-0.753662 2.638763,-1.465881 3.9375,-2.25c2.716919,-1.639893 5.391724,-3.354309 8.03125,-5.125c2.639282,-1.770691 5.256531,-3.600098 7.8125,-5.5c2.556061,-1.89978 5.063965,-3.879089 7.53125,-5.906189c0.980408,-0.805664 1.91156,-1.671387 2.875,-2.5zm-181.78125,-39.281311c-1.359802,-0.094177 -2.74118,-0.451477 -4.03125,-1.093689c-5.160278,-2.568909 -7.223053,-8.770813 -4.59375,-13.8125c2.629303,-5.041748 8.964722,-7.037659 14.125,-4.46875c5.160278,2.568848 7.223053,8.739563 4.59375,13.78125c-1.971985,3.781311 -6.014404,5.876404 -10.09375,5.593689zm148.875,-47.281189c-1.359772,-0.094208 -2.74118,-0.451538 -4.03125,-1.09375c-5.16037,-2.568939 -7.223083,-8.739563 -4.59375,-13.78125c2.629395,-5.041718 8.964691,-7.037659 14.125,-4.46875c5.160309,2.568878 7.223145,8.739502 4.59375,13.78125c-1.972015,3.781281 -6.014435,5.845123 -10.09375,5.5625z" id="path3767"/>
   </g>
   <path fill="#ffffff" fill-rule="nonzero" stroke-width="15.972773" stroke-linejoin="round" stroke-miterlimit="4" stroke-dashoffset="0" id="path2327" d="m193.732361,98.699646c-51.389832,0 -93.330933,41.899445 -93.330933,93.289276c0,51.389832 41.941101,93.330963 93.330933,93.330963c51.389862,0 93.289276,-41.941132 93.289276,-93.330963c0,-51.389832 -41.899414,-93.289276 -93.289276,-93.289276zm0,21.300629c39.861969,0 71.988647,32.126678 71.988647,71.988647c0,39.861938 -32.126678,72.030304 -71.988647,72.030304c-39.861938,0 -72.030304,-32.168365 -72.030304,-72.030304c0,-39.861969 32.168365,-71.988647 72.030304,-71.988647z"/>
   <path fill="#007fff" fill-rule="nonzero" stroke-width="11.245264" stroke-linejoin="round" stroke-miterlimit="4" stroke-dashoffset="0" id="path3500" d="m193.732361,101.825958c-49.683838,0 -90.162933,40.479095 -90.162933,90.162964c0,49.683868 40.479095,90.162933 90.162933,90.162933c49.683868,0 90.121277,-40.479065 90.121277,-90.162933c0,-49.683868 -40.437408,-90.162964 -90.121277,-90.162964zm0,15.006317c41.567932,0 75.156647,33.588715 75.156647,75.156647c0,41.567932 -33.588715,75.156647 -75.156647,75.156647c-41.567902,0 -75.156647,-33.588715 -75.156647,-75.156647c0,-41.567932 33.588745,-75.156647 75.156647,-75.156647z"/>
  </g>
 </g>
</svg>